<?xml version="1.0" encoding="UTF-8"?>
<svg id="Layer_2" data-name="Layer 2" xmlns="http://www.w3.org/2000/svg" viewBox="0 0 53.68 80.66">
  <defs>
    <style>
      .cls-1 {
        fill: #d45127;
        stroke-width: 0px;
      }

      .cls-2 {
        fill: #fff;
        stroke: #fff;
        stroke-miterlimit: 10;
        stroke-width: .5px;
      }
    </style>
  </defs>
  <g id="Layer_1-2" data-name="Layer 1">
    <g>
      <path class="cls-1" d="M19.72,54.33c.03.42.07.79.08,1.17.01.53.03,1.06,0,1.58-.07,1.4.5,2.46,1.84,2.48,1.45.02,1.96-1.06,1.95-2.55-.03-9.7-.01-19.4-.01-29.1,0-.53-.18-1.19.05-1.55.44-.69,1.08-1.56,1.74-1.67.52-.09,1.36.74,1.76,1.36.3.47.18,1.27.18,1.93,0,6.66.03,13.33,0,19.99,0,1.44.33,2.64,1.86,2.6,1.48-.03,1.92-1.24,1.91-2.66-.01-2.31-.11-4.63.07-6.92.06-.69.82-1.59,1.47-1.87.43-.18,1.36.43,1.81.94.31.35.24,1.13.25,1.71.03,2.63.01,5.26.02,7.89,0,1.06.83,2.01,1.88,1.99,1.28-.01,1.87-.98,1.84-2.34-.04-1.78.01-3.56-.01-5.34-.02-1.48.35-2.78,1.99-2.73,1.55.05,1.75,1.37,1.72,2.75-.04,2.44-.03,4.88,0,7.32.02,1.2.59,2.05,1.81,2.07,1.31.02,1.93-.78,1.94-2.13,0-.59,0-1.19,0-1.78.01-1.39.12-2.83,1.85-2.84,1.61-.02,1.85,1.39,1.88,2.67.24,9.34-.35,18.57-3.71,27.38-.5,1.31-1.08,2.84.67,3.52,1.65.65,2.34-.7,2.82-2.1.21-.62.46-1.22.67-1.84,2.86-8.45,3.52-17.21,3.35-26.09-.11-5.44-2.24-7.61-7.38-7.57-1.89-4.87-3.41-5.74-8.44-4.81-1.44-2.46-3.71-3.03-6.51-2.62,0-2.66.08-5.15-.03-7.64-.06-1.29-.26-2.66-.77-3.81-.99-2.27-3.64-3.51-5.84-3-2.8.65-4.59,2.86-4.61,5.91-.05,5.48-.01,10.95-.02,16.43,0,2.36,0,4.72,0,7.03-4.8,1.02-6.57,3.28-6.83,8.18-.48,8.86,2.8,15.87,9.32,21.37.98.83,1.95,1.11,2.81.08.9-1.08.58-2.17-.43-3.09-.95-.86-1.89-1.74-2.76-2.69-4.15-4.52-5.64-9.99-5.11-16.15.16-1.82.71-3.36,2.92-3.48ZM26.34,6.71s0,0,0,0c0-1.58.23-3.2-.1-4.72-.17-.77-1.23-1.75-2.07-1.94-1.3-.29-2.04.7-2.05,1.93-.03,3.09-.14,6.2.08,9.28.05.76,1.14,1.92,1.92,2.07,1.32.24,2.17-.76,2.21-2.08.04-1.51.01-3.03.01-4.54ZM7.28,20.54c-1.7,0-3.41.01-5.11,0-1.09-.01-2.11.78-2.16,1.87-.07,1.32.91,2,2.17,2.04,3.32.11,6.65.1,9.97.01,1.28-.04,2.39-.66,2.29-2.08-.09-1.37-1.07-1.88-2.49-1.84-1.56.04-3.11,0-4.67,0ZM41.24,20.54c-1.7,0-3.43-.18-5.08.08-.8.13-1.99,1.03-2.04,1.65-.06.66.98,1.99,1.6,2.03,3.59.21,7.2.22,10.79.03.68-.04,1.72-1.23,1.83-1.97.16-1.17-.87-1.83-2.22-1.82-1.63.02-3.25,0-4.88,0ZM15.97,16.86c.63-.51,1.56-.91,1.64-1.41.11-.79-.08-1.89-.63-2.45-2.08-2.14-4.36-4.11-6.57-6.14-1-.92-2.09-1.46-3.28-.32-1.14,1.09-.74,2.13.3,3.08,2.21,2.03,4.39,4.08,6.63,6.09.48.43,1.14.7,1.91,1.15ZM42.19,7.83c-.55-.65-.93-1.53-1.49-1.65-.75-.16-1.88.03-2.43.5-2.35,1.98-4.54,4.12-6.79,6.2-1.04.96-1.42,2.07-.36,3.12,1.11,1.1,2.28.64,3.3-.31,2.14-1.99,4.32-3.96,6.43-5.98.51-.49.83-1.16,1.34-1.88Z"/>
      <path class="cls-2" d="M19.72,54.33c-2.2.12-2.76,1.66-2.92,3.48-.54,6.15.96,11.62,5.11,16.15.87.95,1.81,1.83,2.76,2.69,1.02.92,1.33,2.01.43,3.09-.85,1.03-1.83.75-2.81-.08-6.51-5.5-9.79-12.51-9.32-21.37.26-4.9,2.03-7.16,6.83-8.18,0-2.31,0-4.67,0-7.03,0-5.48-.03-10.95.02-16.43.03-3.05,1.82-5.26,4.61-5.91,2.2-.51,4.85.73,5.84,3,.5,1.16.71,2.53.77,3.81.12,2.48.03,4.98.03,7.64,2.79-.4,5.07.16,6.51,2.62,5.04-.93,6.55-.05,8.44,4.81,5.14-.04,7.27,2.13,7.38,7.57.17,8.88-.48,17.64-3.35,26.09-.21.62-.46,1.22-.67,1.84-.48,1.4-1.16,2.75-2.82,2.1-1.75-.68-1.17-2.21-.67-3.52,3.35-8.81,3.95-18.04,3.71-27.38-.03-1.28-.27-2.69-1.88-2.67-1.73.02-1.84,1.46-1.85,2.84,0,.59,0,1.19,0,1.78-.01,1.34-.63,2.15-1.94,2.13-1.23-.02-1.79-.87-1.81-2.07-.04-2.44-.05-4.88,0-7.32.02-1.38-.17-2.69-1.72-2.75-1.64-.06-2.01,1.24-1.99,2.73.03,1.78-.03,3.56.01,5.34.03,1.36-.56,2.33-1.84,2.34-1.06.01-1.88-.94-1.88-1.99,0-2.63,0-5.26-.02-7.89,0-.59.06-1.36-.25-1.71-.45-.51-1.38-1.12-1.81-.94-.65.28-1.41,1.17-1.47,1.87-.18,2.29-.08,4.61-.07,6.92,0,1.42-.43,2.62-1.91,2.66-1.53.03-1.87-1.16-1.86-2.6.03-6.66.02-13.33,0-19.99,0-.65.13-1.46-.18-1.93-.4-.63-1.24-1.45-1.76-1.36-.66.11-1.29.99-1.74,1.67-.24.36-.05,1.03-.05,1.55,0,9.7-.02,19.4.01,29.1,0,1.49-.5,2.58-1.95,2.55-1.34-.02-1.91-1.08-1.84-2.48.03-.53.01-1.06,0-1.58-.01-.38-.05-.76-.08-1.17Z"/>
    </g>
  </g>
</svg>